<?xml version="1.0" encoding="UTF-8" standalone="no"?>
<svg
   xmlns:dc="http://purl.org/dc/elements/1.1/"
   xmlns:cc="http://creativecommons.org/ns#"
   xmlns:rdf="http://www.w3.org/1999/02/22-rdf-syntax-ns#"
   xmlns:svg="http://www.w3.org/2000/svg"
   xmlns="http://www.w3.org/2000/svg"
   xmlns:sodipodi="http://sodipodi.sourceforge.net/DTD/sodipodi-0.dtd"
   xmlns:inkscape="http://www.inkscape.org/namespaces/inkscape"
   version="1.2"
   width="500"
   height="125"
   viewBox="0 0 500 125"
   stroke-linecap="butt"
   stroke-linejoin="round"
   id="svg256"
   sodipodi:docname="key_margin_gop.svg"
   inkscape:version="1.0.2-2 (e86c870879, 2021-01-15)">
  <metadata
     id="metadata262">
    <rdf:RDF>
      <cc:Work
         rdf:about="">
        <dc:format>image/svg+xml</dc:format>
        <dc:type
           rdf:resource="http://purl.org/dc/dcmitype/StillImage" />
        <dc:title></dc:title>
      </cc:Work>
    </rdf:RDF>
  </metadata>
  <defs
     id="defs260" />
  <sodipodi:namedview
     pagecolor="#ffffff"
     bordercolor="#666666"
     borderopacity="1"
     objecttolerance="10"
     gridtolerance="10"
     guidetolerance="10"
     inkscape:pageopacity="0"
     inkscape:pageshadow="2"
     inkscape:window-width="1280"
     inkscape:window-height="668"
     id="namedview258"
     showgrid="false"
     inkscape:zoom="5.4062324"
     inkscape:cx="500.44453"
     inkscape:cy="13.291049"
     inkscape:window-x="-6"
     inkscape:window-y="-6"
     inkscape:window-maximized="1"
     inkscape:current-layer="layer7"
     inkscape:document-rotation="0" />
  <style
     id="style2">
  path {shape-rendering: crispEdges;}
</style>
  <g
     id="layer4">
    <path
       d="m 1,90.64 v -0.96 h 4.98 v 0.96 z"
       fill="#dddddd"
       id="path4" />
    <path
       d="m 15.94,90.64 v -0.96 h 4.98 v 0.96 z"
       fill="#dddddd"
       id="path6" />
    <path
       d="m 20.92,90.64 v -0.96 h 4.98 v 0.96 z"
       fill="#dddddd"
       id="path8" />
    <path
       d="m 25.9,90.64 v -1.93 h 4.98 v 1.93 z"
       fill="#dddddd"
       id="path10" />
    <path
       d="m 30.88,90.64 v -0.96 h 4.98 v 0.96 z"
       fill="#dddddd"
       id="path12" />
    <path
       d="m 35.86,90.64 v -1.93 h 4.98 v 1.93 z"
       fill="#dddddd"
       id="path14" />
    <path
       d="m 40.84,90.64 v -2.89 h 4.98 v 2.89 z"
       fill="#dddddd"
       id="path16" />
    <path
       d="m 50.8,90.64 v -3.86 h 4.98 v 3.86 z"
       fill="#dddddd"
       id="path18" />
    <path
       d="m 55.78,90.64 v -1.93 h 4.98 v 1.93 z"
       fill="#dddddd"
       id="path20" />
    <path
       d="m 60.76,90.64 v -5.78 h 4.98 v 5.78 z"
       fill="#dddddd"
       id="path22" />
    <path
       d="m 65.74,90.64 v -4.82 h 4.98 v 4.82 z"
       fill="#dddddd"
       id="path24" />
    <path
       d="m 70.72,90.64 v -2.89 h 4.98 v 2.89 z"
       fill="#dddddd"
       id="path26" />
    <path
       d="m 75.7,90.64 v -0.96 h 4.98 v 0.96 z"
       fill="#dddddd"
       id="path28" />
    <path
       d="m 80.68,90.64 v -3.86 h 4.98 v 3.86 z"
       fill="#dddddd"
       id="path30" />
    <path
       d="m 85.66,90.64 v -3.86 h 4.98 v 3.86 z"
       fill="#dddddd"
       id="path32" />
    <path
       d="m 90.64,90.64 v -3.86 h 4.98 v 3.86 z"
       fill="#dddddd"
       id="path34" />
    <path
       d="m 95.62,90.64 v -4.82 h 4.98 v 4.82 z"
       fill="#dddddd"
       id="path36" />
    <path
       d="m 100.6,90.64 v -3.86 h 4.98 v 3.86 z"
       fill="#dddddd"
       id="path38" />
    <path
       d="m 105.58,90.64 v -4.82 h 4.98 v 4.82 z"
       fill="#dddddd"
       id="path40" />
    <path
       d="m 110.56,90.64 v -10.6 h 4.98 v 10.6 z"
       fill="#dddddd"
       id="path42" />
    <path
       d="M 115.54,90.64 V 81 h 4.98 v 9.64 z"
       fill="#dddddd"
       id="path44" />
    <path
       d="m 120.52,90.64 v -5.78 h 4.98 v 5.78 z"
       fill="#dddddd"
       id="path46" />
    <path
       d="M 125.5,90.64 V 78.11 h 4.98 v 12.53 z"
       fill="#dddddd"
       id="path48" />
    <path
       d="m 130.48,90.64 v -10.6 h 4.98 v 10.6 z"
       fill="#dddddd"
       id="path50" />
    <path
       d="m 135.46,90.64 v -8.67 h 4.98 v 8.67 z"
       fill="#dddddd"
       id="path52" />
    <path
       d="M 140.44,90.64 V 76.18 h 4.98 v 14.46 z"
       fill="#dddddd"
       id="path54" />
    <path
       d="M 145.42,90.64 V 78.11 h 4.98 v 12.53 z"
       fill="#dddddd"
       id="path56" />
    <path
       d="M 150.4,90.64 V 78.11 h 4.98 v 12.53 z"
       fill="#dddddd"
       id="path58" />
    <path
       d="M 155.38,90.64 V 79.07 h 4.98 v 11.57 z"
       fill="#dddddd"
       id="path60" />
    <path
       d="m 160.36,90.64 v -10.6 h 4.98 v 10.6 z"
       fill="#dddddd"
       id="path62" />
    <path
       d="M 165.34,90.64 V 75.22 h 4.98 v 15.42 z"
       fill="#dddddd"
       id="path64" />
    <path
       d="M 170.32,90.64 V 68.47 h 4.98 v 22.17 z"
       fill="#dddddd"
       id="path66" />
    <path
       d="M 175.3,90.64 V 75.22 h 4.98 v 15.42 z"
       fill="#dddddd"
       id="path68" />
    <path
       d="M 180.28,90.64 V 73.29 h 4.98 v 17.35 z"
       fill="#dddddd"
       id="path70" />
    <path
       d="M 185.26,90.64 V 74.25 h 4.98 v 16.39 z"
       fill="#dddddd"
       id="path72" />
    <path
       d="M 190.24,90.64 V 71.36 h 4.98 v 19.28 z"
       fill="#dddddd"
       id="path74" />
    <path
       d="M 195.22,90.64 V 67.51 h 4.98 v 23.13 z"
       fill="#dddddd"
       id="path76" />
    <path
       d="M 200.2,90.64 V 67.51 h 4.98 v 23.13 z"
       fill="#dddddd"
       id="path78" />
    <path
       d="M 205.18,90.64 V 73.29 h 4.98 v 17.35 z"
       fill="#dddddd"
       id="path80" />
    <path
       d="M 210.16,90.64 V 58.83 h 4.98 v 31.81 z"
       fill="#dddddd"
       id="path82" />
    <path
       d="M 215.14,90.64 V 62.69 h 4.98 v 27.95 z"
       fill="#dddddd"
       id="path84" />
    <path
       d="M 220.12,90.64 V 65.58 h 4.98 v 25.06 z"
       fill="#dddddd"
       id="path86" />
    <path
       d="M 225.1,90.64 V 63.65 h 4.98 v 26.99 z"
       fill="#dddddd"
       id="path88" />
    <path
       d="M 230.08,90.64 V 64.62 h 4.98 v 26.02 z"
       fill="#dddddd"
       id="path90" />
    <path
       d="M 235.06,90.64 V 63.65 h 4.98 v 26.99 z"
       fill="#dddddd"
       id="path92" />
    <path
       d="M 240.04,90.64 V 67.51 h 4.98 v 23.13 z"
       fill="#dddddd"
       id="path94" />
    <path
       d="M 245.02,90.64 V 56.9 H 250 v 33.74 z"
       fill="#dddddd"
       id="path96" />
    <path
       d="M 250,90.64 V 63.65 h 4.98 v 26.99 z"
       fill="#dddddd"
       id="path98" />
    <path
       d="m 254.98,90.64 v -24.1 h 4.98 v 24.1 z"
       fill="#dddddd"
       id="path100" />
    <path
       d="M 259.96,90.64 V 54.98 h 4.98 v 35.66 z"
       fill="#dddddd"
       id="path102" />
    <path
       d="M 264.94,90.64 V 62.69 h 4.98 v 27.95 z"
       fill="#dddddd"
       id="path104" />
    <path
       d="M 269.92,90.64 V 51.12 h 4.98 v 39.52 z"
       fill="#dddddd"
       id="path106" />
    <path
       d="M 274.9,90.64 V 47.27 h 4.98 v 43.37 z"
       fill="#dddddd"
       id="path108" />
    <path
       d="M 279.88,90.64 V 33.77 h 4.98 v 56.87 z"
       fill="#dddddd"
       id="path110" />
    <path
       d="M 284.86,90.64 V 48.23 h 4.98 v 42.41 z"
       fill="#dddddd"
       id="path112" />
    <path
       d="M 289.84,90.64 V 47.27 h 4.98 v 43.37 z"
       fill="#dddddd"
       id="path114" />
    <path
       d="M 294.82,90.64 V 37.63 h 4.98 v 53.01 z"
       fill="#dddddd"
       id="path116" />
    <path
       d="M 299.8,90.64 V 46.3 h 4.98 v 44.34 z"
       fill="#dddddd"
       id="path118" />
    <path
       d="M 304.78,90.64 V 32.81 h 4.98 v 57.83 z"
       fill="#dddddd"
       id="path120" />
    <path
       d="M 309.76,90.64 V 29.92 h 4.98 v 60.72 z"
       fill="#dddddd"
       id="path122" />
    <path
       d="M 314.74,90.64 V 42.45 h 4.98 v 48.19 z"
       fill="#dddddd"
       id="path124" />
    <path
       d="M 319.72,90.64 V 41.48 h 4.98 v 49.16 z"
       fill="#dddddd"
       id="path126" />
    <path
       d="M 324.7,90.64 V 33.77 h 4.98 v 56.87 z"
       fill="#dddddd"
       id="path128" />
    <path
       d="M 329.68,90.64 V 28.95 h 4.98 v 61.69 z"
       fill="#dddddd"
       id="path130" />
    <path
       d="M 334.66,90.64 V 32.81 h 4.98 v 57.83 z"
       fill="#dddddd"
       id="path132" />
    <path
       d="m 339.64,90.64 v -58.8 h 4.98 v 58.8 z"
       fill="#dddddd"
       id="path134" />
    <path
       d="M 344.62,90.64 V 13.53 h 4.98 v 77.11 z"
       fill="#dddddd"
       id="path136" />
    <path
       d="M 349.6,90.64 V 19.31 h 4.98 v 71.33 z"
       fill="#dddddd"
       id="path138" />
    <path
       d="M 354.58,90.64 V 33.77 h 4.98 v 56.87 z"
       fill="#dddddd"
       id="path140" />
    <path
       d="M 359.56,90.64 V 4.86 h 4.98 v 85.78 z"
       fill="#dddddd"
       id="path142" />
    <path
       d="M 364.54,90.64 V 14.49 h 4.98 v 76.15 z"
       fill="#dddddd"
       id="path144" />
    <path
       d="M 369.52,90.64 V 7.75 h 4.98 v 82.89 z"
       fill="#dddddd"
       id="path146" />
    <path
       d="M 374.5,90.64 V 29.92 h 4.98 v 60.72 z"
       fill="#dddddd"
       id="path148" />
    <path
       d="M 379.48,90.64 V 2.93 h 4.98 v 87.71 z"
       fill="#dddddd"
       id="path150" />
    <path
       d="M 384.46,90.64 V 6.78 h 4.98 v 83.86 z"
       fill="#dddddd"
       id="path152" />
    <path
       d="M 389.44,90.64 V 33.77 h 4.98 v 56.87 z"
       fill="#dddddd"
       id="path154" />
    <path
       d="M 394.42,90.64 V 1.96 h 4.98 v 88.68 z"
       fill="#dddddd"
       id="path156" />
    <path
       d="M 399.4,90.64 V 1 h 4.98 v 89.64 z"
       fill="#dddddd"
       id="path158" />
    <path
       d="M 404.38,90.64 V 17.39 h 4.98 v 73.25 z"
       fill="#dddddd"
       id="path160" />
    <path
       d="M 409.36,90.64 V 12.57 h 4.98 v 78.07 z"
       fill="#dddddd"
       id="path162" />
    <path
       d="M 414.34,90.64 V 3.89 h 4.98 v 86.75 z"
       fill="#dddddd"
       id="path164" />
    <path
       d="M 419.32,90.64 V 44.37 h 4.98 v 46.27 z"
       fill="#dddddd"
       id="path166" />
    <path
       d="M 424.3,90.64 V 27.99 h 4.98 v 62.65 z"
       fill="#dddddd"
       id="path168" />
    <path
       d="M 429.28,90.64 V 41.48 h 4.98 v 49.16 z"
       fill="#dddddd"
       id="path170" />
    <path
       d="M 434.26,90.64 V 51.12 h 4.98 v 39.52 z"
       fill="#dddddd"
       id="path172" />
    <path
       d="M 439.24,90.64 V 48.23 h 4.98 v 42.41 z"
       fill="#dddddd"
       id="path174" />
    <path
       d="M 444.22,90.64 V 51.12 h 4.98 v 39.52 z"
       fill="#dddddd"
       id="path176" />
    <path
       d="m 449.2,90.64 v -24.1 h 4.98 v 24.1 z"
       fill="#dddddd"
       id="path178" />
    <path
       d="M 454.18,90.64 V 57.87 h 4.98 v 32.77 z"
       fill="#dddddd"
       id="path180" />
    <path
       d="M 459.16,90.64 V 72.33 h 4.98 v 18.31 z"
       fill="#dddddd"
       id="path182" />
    <path
       d="M 464.14,90.64 V 76.18 h 4.98 v 14.46 z"
       fill="#dddddd"
       id="path184" />
    <path
       d="m 469.12,90.64 v -4.82 h 4.98 v 4.82 z"
       fill="#dddddd"
       id="path186" />
    <path
       d="m 474.1,90.64 v -5.78 h 4.98 v 5.78 z"
       fill="#dddddd"
       id="path188" />
    <path
       d="m 479.08,90.64 v -2.89 h 4.98 v 2.89 z"
       fill="#dddddd"
       id="path190" />
    <path
       d="m 484.06,90.64 v -2.89 h 4.98 v 2.89 z"
       fill="#dddddd"
       id="path192" />
    <path
       d="m 489.04,90.64 v -0.96 h 4.98 v 0.96 z"
       fill="#dddddd"
       id="path194" />
    <path
       d="M 494.02,90.64 V 88.71 H 499 v 1.93 z"
       fill="#dddddd"
       id="path196" />
  </g>
  <g
     id="layer5">
    <path
       d="m 1,100.6 v -9.96 h 115.62 v 9.96 z"
       fill="#2166ac"
       id="path199" />
    <path
       d="M 116.62,100.6 V 90.64 H 172 v 9.96 z"
       fill="#4393c3"
       id="path201" />
    <path
       d="m 172,100.6 v -9.96 h 55.38 v 9.96 z"
       fill="#92c5de"
       id="path203" />
    <path
       d="m 227.38,100.6 v -9.96 h 13.84 v 9.96 z"
       fill="#d1e5f0"
       id="path205" />
    <path
       d="m 241.22,100.6 v -9.96 h 13.85 v 9.96 z"
       fill="#fddbc7"
       id="path207" />
    <path
       d="m 255.07,100.6 v -9.96 h 55.38 v 9.96 z"
       fill="#f4a582"
       id="path209" />
    <path
       d="m 310.45,100.6 v -9.96 h 55.38 v 9.96 z"
       fill="#d6604d"
       id="path211" />
    <path
       d="M 365.83,100.6 V 90.64 H 499 v 9.96 z"
       fill="#b2182b"
       id="path213" />
    <g
       id="g215" />
  </g>
  <g
     id="layer6"
     fill="none"
     stroke="#000000"
     stroke-width="1">
    <path
       d="m 1,90.64 v 15.94"
       stroke="rgba(0,0,0,0.3)"
       id="path218" />
    <path
       d="m 116.62,90.64 v 15.94"
       stroke="rgba(0,0,0,0.3)"
       id="path220" />
    <path
       d="m 172,90.64 v 15.94"
       stroke="rgba(0,0,0,0.3)"
       id="path222" />
    <path
       d="m 227.38,90.64 v 15.94"
       stroke="rgba(0,0,0,0.3)"
       id="path224" />
    <path
       d="m 241.22,90.64 v 15.94"
       stroke="rgba(0,0,0,0.3)"
       id="path226" />
    <path
       d="m 255.07,90.64 v 15.94"
       stroke="rgba(0,0,0,0.3)"
       id="path228" />
    <path
       d="m 310.45,90.64 v 15.94"
       stroke="rgba(0,0,0,0.3)"
       id="path230" />
    <path
       d="m 365.83,90.64 v 15.94"
       stroke="rgba(0,0,0,0.3)"
       id="path232" />
    <path
       d="m 499,90.64 v 15.94"
       stroke="rgba(0,0,0,0.3)"
       id="path234" />
  </g>
  <g
     id="layer7"
     font-family="sans-serif"
     font-size="12px"
     text-anchor="middle">
    <text
       y="0"
       x="0"
       transform="translate(1,119.6236)"
       font-family="sans-serif"
       font-size="13px"
       text-anchor="start"
       fill="#555555"
       id="text237"
       dy="0 0"
       style="font-style:normal;font-variant:normal;font-weight:bold;font-stretch:normal;font-size:16px;font-family:Arial;-inkscape-font-specification:'Arial, Bold';font-variant-ligatures:normal;font-variant-caps:normal;font-variant-numeric:normal;font-variant-east-asian:normal;fill:#000000;">87</text>
    <text
       y="0"
       x="0"
       transform="translate(116.6156,119.6236)"
       font-family="sans-serif"
       font-size="13px"
       text-anchor="middle"
       fill="#555555"
       id="text239"
       style="font-style:normal;font-variant:normal;font-weight:bold;font-stretch:normal;font-size:16px;font-family:Arial;-inkscape-font-specification:'Arial, Bold';font-variant-ligatures:normal;font-variant-caps:normal;font-variant-numeric:normal;font-variant-east-asian:normal;fill:#000000;">45</text>
    <text
       y="0"
       x="0"
       transform="translate(171.9971,119.6236)"
       font-family="sans-serif"
       font-size="13px"
       text-anchor="middle"
       fill="#555555"
       id="text241"
       style="font-style:normal;font-variant:normal;font-weight:bold;font-stretch:normal;font-size:16px;font-family:Arial;-inkscape-font-specification:'Arial, Bold';font-variant-ligatures:normal;font-variant-caps:normal;font-variant-numeric:normal;font-variant-east-asian:normal;fill:#000000;">25</text>
    <text
       y="0"
       x="0"
       transform="translate(227.3787,119.6236)"
       font-family="sans-serif"
       font-size="13px"
       text-anchor="middle"
       fill="#555555"
       id="text243"
       style="font-style:normal;font-variant:normal;font-weight:bold;font-stretch:normal;font-size:16px;font-family:Arial;-inkscape-font-specification:'Arial, Bold';font-variant-ligatures:normal;font-variant-caps:normal;font-variant-numeric:normal;font-variant-east-asian:normal;fill:#000000;">5</text>
    <text
       y="0"
       x="0"
       transform="translate(241.2241,119.6236)"
       font-family="sans-serif"
       font-size="13"
       text-anchor="middle"
       fill="#555"
       id="text245"
       style="font-style:normal;font-variant:normal;font-weight:bold;font-stretch:normal;font-size:16px;font-family:Arial;-inkscape-font-specification:'Arial, Bold';font-variant-ligatures:normal;font-variant-caps:normal;font-variant-numeric:normal;font-variant-east-asian:normal;fill:#000000;">0</text>
    <text
       y="0"
       x="0"
       transform="translate(255.0694,119.6236)"
       font-family="sans-serif"
       font-size="13px"
       text-anchor="middle"
       fill="#555555"
       id="text247"
       style="font-style:normal;font-variant:normal;font-weight:bold;font-stretch:normal;font-size:16px;font-family:Arial;-inkscape-font-specification:'Arial, Bold';font-variant-ligatures:normal;font-variant-caps:normal;font-variant-numeric:normal;font-variant-east-asian:normal;fill:#000000;">5</text>
    <text
       y="0"
       x="0"
       transform="translate(310.451,119.6236)"
       font-family="sans-serif"
       font-size="13px"
       text-anchor="middle"
       fill="#555555"
       id="text249"
       style="font-style:normal;font-variant:normal;font-weight:bold;font-stretch:normal;font-size:16px;font-family:Arial;-inkscape-font-specification:'Arial, Bold';font-variant-ligatures:normal;font-variant-caps:normal;font-variant-numeric:normal;font-variant-east-asian:normal;fill:#000000;">25</text>
    <text
       y="0"
       x="0"
       transform="translate(365.8325,119.6236)"
       font-family="sans-serif"
       font-size="13px"
       text-anchor="middle"
       fill="#555555"
       id="text251"
       style="font-style:normal;font-variant:normal;font-weight:bold;font-stretch:normal;font-size:16px;font-family:Arial;-inkscape-font-specification:'Arial, Bold';font-variant-ligatures:normal;font-variant-caps:normal;font-variant-numeric:normal;font-variant-east-asian:normal;fill:#000000;">45</text>
    <text
       y="0"
       x="0"
       transform="translate(499,119.6236)"
       font-family="sans-serif"
       font-size="13px"
       text-anchor="end"
       fill="#555555"
       id="text253"
       style="font-style:normal;font-variant:normal;font-weight:bold;font-stretch:normal;font-size:16px;font-family:Arial;-inkscape-font-specification:'Arial, Bold';font-variant-ligatures:normal;font-variant-caps:normal;font-variant-numeric:normal;font-variant-east-asian:normal;fill:#000000;">93</text>
    <text
       xml:space="preserve"
       style="font-style:normal;font-variant:normal;font-weight:bold;font-stretch:normal;font-size:20px;line-height:1.25;font-family:sans-serif;-inkscape-font-specification:'sans-serif, Bold';font-variant-ligatures:normal;font-variant-caps:normal;font-variant-numeric:normal;font-variant-east-asian:normal;fill:#2166ac;fill-opacity:1;stroke:none"
       x="34.55954"
       y="18.037603"
       id="text266"><tspan
         sodipodi:role="line"
         id="tspan264"
         x="34.55954"
         y="18.037603">Biden</tspan></text>
    <text
       xml:space="preserve"
       style="font-style:normal;font-variant:normal;font-weight:bold;font-stretch:normal;font-size:20px;line-height:1.25;font-family:sans-serif;-inkscape-font-specification:'sans-serif, Bold';font-variant-ligatures:normal;font-variant-caps:normal;font-variant-numeric:normal;font-variant-east-asian:normal;fill:#b2182b;fill-opacity:1;stroke:none"
       x="462.65698"
       y="16.966135"
       id="text266-4"><tspan
         sodipodi:role="line"
         id="tspan264-3"
         x="462.65698"
         y="16.966135">Trump</tspan></text>
  </g>
</svg>
