<?xml version="1.0" encoding="UTF-8" standalone="no"?>
<svg
   xmlns:dc="http://purl.org/dc/elements/1.1/"
   xmlns:cc="http://creativecommons.org/ns#"
   xmlns:rdf="http://www.w3.org/1999/02/22-rdf-syntax-ns#"
   xmlns:svg="http://www.w3.org/2000/svg"
   xmlns="http://www.w3.org/2000/svg"
   xmlns:sodipodi="http://sodipodi.sourceforge.net/DTD/sodipodi-0.dtd"
   xmlns:inkscape="http://www.inkscape.org/namespaces/inkscape"
   version="1.2"
   width="465"
   height="125"
   viewBox="0 0 465 125"
   stroke-linecap="butt"
   stroke-linejoin="round"
   id="svg204"
   sodipodi:docname="key_delta_unemployment.svg"
   inkscape:version="1.0.2-2 (e86c870879, 2021-01-15)">
  <metadata
     id="metadata210">
    <rdf:RDF>
      <cc:Work
         rdf:about="">
        <dc:format>image/svg+xml</dc:format>
        <dc:type
           rdf:resource="http://purl.org/dc/dcmitype/StillImage" />
        <dc:title></dc:title>
      </cc:Work>
    </rdf:RDF>
  </metadata>
  <defs
     id="defs208" />
  <sodipodi:namedview
     pagecolor="#ffffff"
     bordercolor="#666666"
     borderopacity="1"
     objecttolerance="10"
     gridtolerance="10"
     guidetolerance="10"
     inkscape:pageopacity="0"
     inkscape:pageshadow="2"
     inkscape:window-width="1280"
     inkscape:window-height="668"
     id="namedview206"
     showgrid="false"
     inkscape:zoom="1.2396147"
     inkscape:cx="251.53145"
     inkscape:cy="24.790104"
     inkscape:window-x="-6"
     inkscape:window-y="-6"
     inkscape:window-maximized="1"
     inkscape:current-layer="svg204"
     inkscape:document-rotation="0" />
  <style
     id="style2">
  path {shape-rendering: crispEdges;}
</style>
  <g
     id="layer8"
     transform="matrix(0.92103131,0,0,1,0.07896869,0)">
    <path
       d="m 1,90.64 v -0.91 h 4.98 v 0.91 z"
       fill="#dddddd"
       id="path4" />
    <path
       d="m 5.98,90.64 v -0.91 h 4.98 v 0.91 z"
       fill="#dddddd"
       id="path6" />
    <path
       d="m 10.96,90.64 v -0.46 h 4.98 v 0.46 z"
       fill="#dddddd"
       id="path8" />
    <path
       d="m 25.9,90.64 v -0.91 h 4.98 v 0.91 z"
       fill="#dddddd"
       id="path10" />
    <path
       d="m 30.88,90.64 v -1.37 h 4.98 v 1.37 z"
       fill="#dddddd"
       id="path12" />
    <path
       d="m 35.86,90.64 v -1.37 h 4.98 v 1.37 z"
       fill="#dddddd"
       id="path14" />
    <path
       d="m 40.84,90.64 v -0.46 h 4.98 v 0.46 z"
       fill="#dddddd"
       id="path16" />
    <path
       d="m 50.8,90.64 v -0.91 h 4.98 v 0.91 z"
       fill="#dddddd"
       id="path18" />
    <path
       d="m 55.78,90.64 v -2.29 h 4.98 v 2.29 z"
       fill="#dddddd"
       id="path20" />
    <path
       d="m 60.76,90.64 v -0.91 h 4.98 v 0.91 z"
       fill="#dddddd"
       id="path22" />
    <path
       d="m 65.74,90.64 v -1.83 h 4.98 v 1.83 z"
       fill="#dddddd"
       id="path24" />
    <path
       d="m 70.72,90.64 v -1.37 h 4.98 v 1.37 z"
       fill="#dddddd"
       id="path26" />
    <path
       d="m 75.7,90.64 v -0.46 h 4.98 v 0.46 z"
       fill="#dddddd"
       id="path28" />
    <path
       d="m 80.68,90.64 v -4.12 h 4.98 v 4.12 z"
       fill="#dddddd"
       id="path30" />
    <path
       d="m 85.66,90.64 v -2.29 h 4.98 v 2.29 z"
       fill="#dddddd"
       id="path32" />
    <path
       d="m 90.64,90.64 v -5.49 h 4.98 v 5.49 z"
       fill="#dddddd"
       id="path34" />
    <path
       d="m 95.62,90.64 v -6.86 h 4.98 v 6.86 z"
       fill="#dddddd"
       id="path36" />
    <path
       d="m 100.6,90.64 v -9.15 h 4.98 v 9.15 z"
       fill="#dddddd"
       id="path38" />
    <path
       d="M 105.58,90.64 V 77.38 h 4.98 v 13.26 z"
       fill="#dddddd"
       id="path40" />
    <path
       d="M 110.56,90.64 V 72.8 h 4.98 v 17.84 z"
       fill="#dddddd"
       id="path42" />
    <path
       d="M 115.54,90.64 V 72.35 h 4.98 v 18.29 z"
       fill="#dddddd"
       id="path44" />
    <path
       d="M 120.52,90.64 V 62.28 h 4.98 v 28.36 z"
       fill="#dddddd"
       id="path46" />
    <path
       d="M 125.5,90.64 V 61.37 h 4.98 v 29.27 z"
       fill="#dddddd"
       id="path48" />
    <path
       d="M 130.48,90.64 V 52.68 h 4.98 v 37.96 z"
       fill="#dddddd"
       id="path50" />
    <path
       d="M 135.46,90.64 V 36.22 h 4.98 v 54.42 z"
       fill="#dddddd"
       id="path52" />
    <path
       d="M 140.44,90.64 V 32.56 h 4.98 v 58.08 z"
       fill="#dddddd"
       id="path54" />
    <path
       d="M 145.42,90.64 V 28.9 h 4.98 v 61.74 z"
       fill="#dddddd"
       id="path56" />
    <path
       d="M 150.4,90.64 V 15.18 h 4.98 v 75.46 z"
       fill="#dddddd"
       id="path58" />
    <path
       d="M 155.38,90.64 V 27.07 h 4.98 v 63.57 z"
       fill="#dddddd"
       id="path60" />
    <path
       d="M 160.36,90.64 V 8.77 h 4.98 v 81.87 z"
       fill="#dddddd"
       id="path62" />
    <path
       d="M 165.34,90.64 V 1 h 4.98 v 89.64 z"
       fill="#dddddd"
       id="path64" />
    <path
       d="M 170.32,90.64 V 5.57 h 4.98 v 85.07 z"
       fill="#dddddd"
       id="path66" />
    <path
       d="M 175.3,90.64 V 11.98 h 4.98 v 78.66 z"
       fill="#dddddd"
       id="path68" />
    <path
       d="M 180.28,90.64 V 14.72 h 4.98 v 75.92 z"
       fill="#dddddd"
       id="path70" />
    <path
       d="M 185.26,90.64 V 20.21 h 4.98 v 70.43 z"
       fill="#dddddd"
       id="path72" />
    <path
       d="M 190.24,90.64 V 24.78 h 4.98 v 65.86 z"
       fill="#dddddd"
       id="path74" />
    <path
       d="M 195.22,90.64 V 24.78 h 4.98 v 65.86 z"
       fill="#dddddd"
       id="path76" />
    <path
       d="M 200.2,90.64 V 37.13 h 4.98 v 53.51 z"
       fill="#dddddd"
       id="path78" />
    <path
       d="M 205.18,90.64 V 46.73 h 4.98 v 43.91 z"
       fill="#dddddd"
       id="path80" />
    <path
       d="M 210.16,90.64 V 50.85 h 4.98 v 39.79 z"
       fill="#dddddd"
       id="path82" />
    <path
       d="M 215.14,90.64 V 56.8 h 4.98 v 33.84 z"
       fill="#dddddd"
       id="path84" />
    <path
       d="m 220.12,90.64 v -27.9 h 4.98 v 27.9 z"
       fill="#dddddd"
       id="path86" />
    <path
       d="M 225.1,90.64 V 68.23 h 4.98 v 22.41 z"
       fill="#dddddd"
       id="path88" />
    <path
       d="M 230.08,90.64 V 67.77 h 4.98 v 22.87 z"
       fill="#dddddd"
       id="path90" />
    <path
       d="M 235.06,90.64 V 72.35 h 4.98 v 18.29 z"
       fill="#dddddd"
       id="path92" />
    <path
       d="M 240.04,90.64 V 76.46 h 4.98 v 14.18 z"
       fill="#dddddd"
       id="path94" />
    <path
       d="M 245.02,90.64 V 73.72 H 250 v 16.92 z"
       fill="#dddddd"
       id="path96" />
    <path
       d="M 250,90.64 V 77.38 h 4.98 v 13.26 z"
       fill="#dddddd"
       id="path98" />
    <path
       d="m 254.98,90.64 v -8.23 h 4.98 v 8.23 z"
       fill="#dddddd"
       id="path100" />
    <path
       d="m 259.96,90.64 v -5.03 h 4.98 v 5.03 z"
       fill="#dddddd"
       id="path102" />
    <path
       d="m 264.94,90.64 v -3.66 h 4.98 v 3.66 z"
       fill="#dddddd"
       id="path104" />
    <path
       d="m 269.92,90.64 v -4.57 h 4.98 v 4.57 z"
       fill="#dddddd"
       id="path106" />
    <path
       d="m 274.9,90.64 v -4.57 h 4.98 v 4.57 z"
       fill="#dddddd"
       id="path108" />
    <path
       d="m 279.88,90.64 v -1.37 h 4.98 v 1.37 z"
       fill="#dddddd"
       id="path110" />
    <path
       d="m 284.86,90.64 v -2.29 h 4.98 v 2.29 z"
       fill="#dddddd"
       id="path112" />
    <path
       d="m 289.84,90.64 v -1.37 h 4.98 v 1.37 z"
       fill="#dddddd"
       id="path114" />
    <path
       d="m 294.82,90.64 v -4.57 h 4.98 v 4.57 z"
       fill="#dddddd"
       id="path116" />
    <path
       d="M 299.8,90.64 V 87.9 h 4.98 v 2.74 z"
       fill="#dddddd"
       id="path118" />
    <path
       d="m 304.78,90.64 v -2.29 h 4.98 v 2.29 z"
       fill="#dddddd"
       id="path120" />
    <path
       d="m 309.76,90.64 v -3.66 h 4.98 v 3.66 z"
       fill="#dddddd"
       id="path122" />
    <path
       d="m 314.74,90.64 v -1.37 h 4.98 v 1.37 z"
       fill="#dddddd"
       id="path124" />
    <path
       d="m 324.7,90.64 v -1.83 h 4.98 v 1.83 z"
       fill="#dddddd"
       id="path126" />
    <path
       d="m 329.68,90.64 v -0.46 h 4.98 v 0.46 z"
       fill="#dddddd"
       id="path128" />
    <path
       d="m 344.62,90.64 v -0.46 h 4.98 v 0.46 z"
       fill="#dddddd"
       id="path130" />
    <path
       d="m 359.56,90.64 v -0.46 h 4.98 v 0.46 z"
       fill="#dddddd"
       id="path132" />
    <path
       d="m 364.54,90.64 v -0.46 h 4.98 v 0.46 z"
       fill="#dddddd"
       id="path134" />
    <path
       d="m 374.5,90.64 v -0.46 h 4.98 v 0.46 z"
       fill="#dddddd"
       id="path136" />
    <path
       d="m 379.48,90.64 v -0.46 h 4.98 v 0.46 z"
       fill="#dddddd"
       id="path138" />
    <path
       d="m 434.26,90.64 v -0.46 h 4.98 v 0.46 z"
       fill="#dddddd"
       id="path140" />
    <path
       d="m 454.18,90.64 v -0.46 h 4.98 v 0.46 z"
       fill="#dddddd"
       id="path142" />
    <path
       d="M 494.02,90.64 V 90.18 H 499 v 0.46 z"
       fill="#dddddd"
       id="path144" />
  </g>
  <path
     d="m 1,100.6 v -9.96 h 106.37 v 9.96 z"
     fill="#ffffd9"
     id="path147" />
  <path
     d="m 107.37,100.6 v -9.96 h 25.66 v 9.96 z"
     fill="#edf8b1"
     id="path149" />
  <path
     d="m 133.03,100.6 v -9.96 h 25.66 v 9.96 z"
     fill="#c7e9b4"
     id="path151" />
  <path
     d="m 158.69,100.6 v -9.96 h 25.66 v 9.96 z"
     fill="#7fcdbb"
     id="path153" />
  <path
     d="m 184.35,100.6 v -9.96 h 25.66 v 9.96 z"
     fill="#41b6c4"
     id="path155" />
  <path
     d="m 210.01,100.6 v -9.96 h 25.65 v 9.96 z"
     fill="#1d91c0"
     id="path157" />
  <path
     d="m 235.66,100.6 v -9.96 h 25.66 v 9.96 z"
     fill="#225ea8"
     id="path159" />
  <path
     d="m 261.32,100.6 v -9.96 h 197.84 v 9.96 z"
     fill="#0c2c84"
     id="path161"
     style="stroke-width:0.912348" />
  <g
     id="g163" />
  <path
     d="m 1,90.64 v 15.94"
     stroke="#000000"
     id="path166"
     style="fill:none;stroke-width:1" />
  <path
     d="m 107.37,90.64 v 15.94"
     stroke="#000000"
     id="path168"
     style="fill:none;stroke-width:1" />
  <path
     d="m 133.03,90.64 v 15.94"
     stroke="#000000"
     id="path170"
     style="fill:none;stroke-width:1" />
  <path
     d="m 158.69,90.64 v 15.94"
     stroke="#000000"
     id="path172"
     style="fill:none;stroke-width:1" />
  <path
     d="m 184.35,90.64 v 15.94"
     stroke="#000000"
     id="path174"
     style="fill:none;stroke-width:1" />
  <path
     d="m 210.01,90.64 v 15.94"
     stroke="#000000"
     id="path176"
     style="fill:none;stroke-width:1" />
  <path
     d="m 235.66,90.64 v 15.94"
     stroke="#000000"
     id="path178"
     style="fill:none;stroke-width:1" />
  <path
     d="m 261.32,90.64 v 15.94"
     stroke="#000000"
     id="path180"
     style="fill:none;stroke-width:1" />
  <path
     d="m 459,90.64 v 15.94"
     stroke="#000000"
     id="path182"
     style="fill:none;stroke-width:1" />
  <text
     y="119.6236"
     x="1"
     font-family="sans-serif"
     font-size="13px"
     text-anchor="start"
     fill="#555555"
     id="text185"
     style="font-style:normal;font-variant:normal;font-weight:bold;font-stretch:normal;font-size:16px;font-family:Arial;-inkscape-font-specification:'Arial, Bold';font-variant-ligatures:normal;font-variant-caps:normal;font-variant-numeric:normal;font-variant-east-asian:normal;fill:#000000;fill-opacity:1;">-4</text>
  <text
     y="119.6236"
     x="107.3749"
     font-family="sans-serif"
     font-size="13"
     text-anchor="middle"
     fill="#555"
     id="text187"
     style="font-style:normal;font-variant:normal;font-weight:bold;font-stretch:normal;font-size:16px;font-family:Arial;-inkscape-font-specification:'Arial, Bold';font-variant-ligatures:normal;font-variant-caps:normal;font-variant-numeric:normal;font-variant-east-asian:normal;fill:#000000;fill-opacity:1;">0</text>
  <text
     y="119.6236"
     x="133.03259"
     font-family="sans-serif"
     font-size="13px"
     text-anchor="middle"
     fill="#555555"
     id="text189"
     style="font-style:normal;font-variant:normal;font-weight:bold;font-stretch:normal;font-size:16px;font-family:Arial;-inkscape-font-specification:'Arial, Bold';font-variant-ligatures:normal;font-variant-caps:normal;font-variant-numeric:normal;font-variant-east-asian:normal;fill:#000000;fill-opacity:1;">1</text>
  <text
     y="119.6236"
     x="158.6904"
     font-family="sans-serif"
     font-size="13px"
     text-anchor="middle"
     fill="#555555"
     id="text191"
     style="font-style:normal;font-variant:normal;font-weight:bold;font-stretch:normal;font-size:16px;font-family:Arial;-inkscape-font-specification:'Arial, Bold';font-variant-ligatures:normal;font-variant-caps:normal;font-variant-numeric:normal;font-variant-east-asian:normal;fill:#000000;fill-opacity:1;">2</text>
  <text
     y="119.6236"
     x="184.3481"
     font-family="sans-serif"
     font-size="13px"
     text-anchor="middle"
     fill="#555555"
     id="text193"
     style="font-style:normal;font-variant:normal;font-weight:bold;font-stretch:normal;font-size:16px;font-family:Arial;-inkscape-font-specification:'Arial, Bold';font-variant-ligatures:normal;font-variant-caps:normal;font-variant-numeric:normal;font-variant-east-asian:normal;fill:#000000;fill-opacity:1;">3</text>
  <text
     y="119.6236"
     x="210.0058"
     font-family="sans-serif"
     font-size="13px"
     text-anchor="middle"
     fill="#555555"
     id="text195"
     style="font-style:normal;font-variant:normal;font-weight:bold;font-stretch:normal;font-size:16px;font-family:Arial;-inkscape-font-specification:'Arial, Bold';font-variant-ligatures:normal;font-variant-caps:normal;font-variant-numeric:normal;font-variant-east-asian:normal;fill:#000000;fill-opacity:1;">4</text>
  <text
     y="119.6236"
     x="235.6635"
     font-family="sans-serif"
     font-size="13px"
     text-anchor="middle"
     fill="#555555"
     id="text197"
     style="font-style:normal;font-variant:normal;font-weight:bold;font-stretch:normal;font-size:16px;font-family:Arial;-inkscape-font-specification:'Arial, Bold';font-variant-ligatures:normal;font-variant-caps:normal;font-variant-numeric:normal;font-variant-east-asian:normal;fill:#000000;fill-opacity:1;">5</text>
  <text
     y="119.6236"
     x="261.32129"
     font-family="sans-serif"
     font-size="13px"
     text-anchor="middle"
     fill="#555555"
     id="text199"
     style="font-style:normal;font-variant:normal;font-weight:bold;font-stretch:normal;font-size:16px;font-family:Arial;-inkscape-font-specification:'Arial, Bold';font-variant-ligatures:normal;font-variant-caps:normal;font-variant-numeric:normal;font-variant-east-asian:normal;fill:#000000;fill-opacity:1;">6</text>
  <text
     y="119.6236"
     x="461"
     font-family="sans-serif"
     font-size="13px"
     text-anchor="end"
     fill="#555555"
     id="text201"
     style="font-style:normal;font-variant:normal;font-weight:bold;font-stretch:normal;font-size:16px;font-family:Arial;-inkscape-font-specification:'Arial, Bold';font-variant-ligatures:normal;font-variant-caps:normal;font-variant-numeric:normal;font-variant-east-asian:normal;fill:#000000;fill-opacity:1;">15</text>
</svg>
